<?xml version="1.0" encoding="utf-8"?>
<!-- Generator: Adobe Illustrator 16.0.0, SVG Export Plug-In . SVG Version: 6.00 Build 0)  -->
<!DOCTYPE svg PUBLIC "-//W3C//DTD SVG 1.1//EN" "http://www.w3.org/Graphics/SVG/1.1/DTD/svg11.dtd">
<svg version="1.1" id="Layer_1" xmlns="http://www.w3.org/2000/svg" xmlns:xlink="http://www.w3.org/1999/xlink" x="0px" y="0px"
	 width="1200px" height="1200px" viewBox="0 0 1200 1200" enable-background="new 0 0 1200 1200" xml:space="preserve">
<g>
	<g>
		<g>
			<g>
				<path d="M663.052,1140.449c-2.238,0-4.185-1.118-5.628-3.235l-0.544-0.795c-4.433-6.495-11.131-16.31-14.272-25.822
					c-1.237-3.742-1.759-5.916-2.104-7.356c-0.556-2.325-0.689-2.878-2.794-5.717c-2.53-3.412-0.504-11.731,1.283-19.071
					c0.88-3.615,1.712-7.031,1.811-9.172c0.051-1.081,0.156-2.33,0.28-3.776l0.16-1.896c0.131-1.612-0.799-3.676-1.877-6.065
					c-1.474-3.268-3.307-7.335-3.388-12.301c-0.051-3.083,0.779-6.387,1.741-10.212c1.38-5.49,2.943-11.714,2.203-18.933
					c-0.707-6.904-1.597-14.87-2.536-23.304c-3.756-33.704-8.43-75.651-6.298-91.756c2.558-19.319,2.691-41.75,0.309-52.176
					c-2.467-10.789-7.092-67.307-7.675-100.015c-0.642-35.774-7.082-83.18-11.634-86.261c-4.553,3.081-10.993,50.486-11.633,86.261
					c-0.585,32.72-5.212,89.234-7.676,100.015c-2.383,10.428-2.25,32.858,0.309,52.175c2.161,16.336-2.497,57.903-6.237,91.304
					c-0.964,8.597-1.875,16.718-2.596,23.757c-0.661,6.426,1.698,11.898,3.778,16.725c1.542,3.578,2.998,6.956,2.926,10.142
					c-0.215,9.233-3.259,15.651-5.483,20.338c-1.21,2.553-2.167,4.568-2.103,5.979c0.099,2.143,0.931,5.56,1.811,9.178
					c1.787,7.338,3.813,15.654,1.283,19.065c-2.104,2.839-2.235,3.392-2.794,5.716c-0.344,1.439-0.865,3.615-2.103,7.358
					c-3.143,9.512-9.842,19.327-14.275,25.823l-0.54,0.793c-1.443,2.117-3.391,3.235-5.629,3.235
					c-4.054,0.001-7.982-3.647-8.652-6.108c-0.108-0.387-0.243-0.494-0.638-0.494c-0.58,0-1.474,0.295-2.42,0.605
					c-1.399,0.459-3.141,1.03-4.932,1.03c-1.115,0-2.157-0.225-3.1-0.667c-1.29-0.607-2.188-0.998-2.834-1.279
					c-1.793-0.781-1.896-0.86-2.766-2.097l-0.285-0.399c-0.644-0.902-1.688-1.097-2.895-1.322c-1.096-0.202-2.225-0.412-3.16-1.189
					c-1.223-1.021-1.898-2.463-2.758-4.287c-0.497-1.057-1.06-2.254-1.824-3.564c-2.198-3.775-2.752-5.688-2.457-11.949
					c0.178-3.744,7.021-11.359,14.268-19.419c5.243-5.833,10.666-11.864,12.313-15.283c3.351-6.964,3.007-11.71,2.253-22.107
					c-0.085-1.174-0.175-2.417-0.265-3.739c-0.881-12.942-10.208-64.385-15.88-85.285c-5.488-20.223-9.468-69.969-5.904-89.586
					c0.545-3.002,1.092-5.843,1.622-8.6c2.841-14.796,5.296-27.573,4.554-50.16c-0.861-26.051-1.969-41.182-17.647-99.988
					c-12.549-47.064-8.218-93.105-5.629-120.613c0.55-5.859,1.027-10.919,1.188-14.638c0.856-19.787,6.848-42.239,12.641-63.95
					l0.636-2.379c5.764-21.617,8.258-53.855,7.341-72.535c-0.872-17.728-6.974-30.686-9.815-30.686
					c-2.92,1.563-7.375,39.801-9.514,58.176l-0.408,3.491c-2.563,21.926-12.242,70.13-20.365,91.788
					c-2.919,7.792-5.342,13.717-7.286,18.477c-3.377,8.265-5.413,13.254-6.52,19.219c-0.731,3.949-1.371,13.191-2.05,22.975
					c-0.983,14.215-2.002,28.914-3.579,33.294c-0.794,2.209-1.442,4.668-2.071,7.047c-1.482,5.604-3.016,11.399-6.641,15.025
					c-3.495,3.494-4.535,3.841-6.217,4.192c-0.596,0.123-1.269,0.265-2.268,0.68c-1.456,0.606-2.343,2.215-3.201,3.77
					c-1.047,1.9-2.133,3.865-4.323,4.231c-1.817,0.304-3.8,2.054-6.097,4.081c-1.808,1.596-3.857,3.404-6.295,4.945
					c-1.715,1.084-3.055,1.035-3.856,0.008c-1.45-1.855-0.589-6.911,0.39-10.826c0.318-1.275,0.111-3.571-0.621-4.51
					c-0.264-0.336-0.5-0.375-0.655-0.375c-0.276,0-0.89,0.151-1.905,1.167c-1.214,1.214-2.344,1.804-3.454,1.804
					c-2.14,0-3.399-2.226-4.233-3.699c-0.186-0.329-0.356-0.63-0.515-0.867c-0.797-1.195,0.556-5.795,5.313-19.953
					c1.907-5.673,3.876-11.538,4.895-15.371c1.831-6.894,1.262-9.843,0.46-11.102c-0.392-0.62-0.931-0.984-1.647-1.115
					c-0.891,0.031-3.788,4.059-5.705,6.724c-2.564,3.566-5.219,7.255-7.314,8.577c-1.025,0.647-2.152,0.988-3.264,0.988
					c-1.867,0.001-3.561-0.963-4.315-2.453c-0.646-1.272-0.497-2.708,0.405-3.941c2.082-2.844,13.154-18.992,17.01-27.17
					c2.779-5.895,9.884-11.051,15.073-14.814c2.153-1.563,4.015-2.914,5.107-3.975c3.695-3.584,4.799-14.826,5.37-54.679
					c0.569-39.688,12.408-86.479,18.589-105.677c5.266-16.352,4.744-38.879,4.433-52.339l-0.05-2.211
					c-0.083-3.789-0.097-6.89-0.112-10.479c-0.037-9.173-0.085-20.588-1.359-51.367c-1.688-40.813,23.464-55.965,36.977-64.105
					c0.789-0.475,1.542-0.929,2.252-1.363c12.227-7.505,62.869-29.877,68.248-32.248c-0.097-2.811-0.513-16.128,0.025-19.383
					c0.486-2.938-3.602-11.839-6.309-17.729l-0.994-2.171c-2.386-5.253-1.984-10.083-1.683-11.997l-3.585-0.238
					c-0.705-0.048-1.401-0.488-2.129-1.35c-4.364-5.16-10.039-26.887-9.745-29.803c0.148-1.506,1.263-2.369,3.057-2.369
					c1.091,0,2.208,0.305,2.731,0.471c-0.09-1.337-0.241-3.229-0.488-5.914c-1.452-15.674,5.236-36.52,10.413-44.937
					c4.803-7.807,32.514-16.45,33.69-16.814l0.219-0.033l8.469,0.033c1.178,0.364,28.889,9.008,33.691,16.813
					c5.178,8.419,11.863,29.265,10.414,44.938c-0.25,2.685-0.401,4.578-0.491,5.914c0.523-0.165,1.641-0.471,2.733-0.471
					c1.791,0,2.906,0.863,3.058,2.369c0.291,2.918-5.386,24.646-9.75,29.805c-0.728,0.859-1.424,1.3-2.129,1.348l-3.583,0.238
					c0.305,1.914,0.705,6.744-1.682,11.997l-0.999,2.181c-2.705,5.887-6.791,14.782-6.305,17.719
					c0.538,3.255,0.122,16.572,0.026,19.383c5.378,2.371,56.021,24.743,68.25,32.248c0.707,0.435,1.461,0.889,2.252,1.363
					c13.51,8.141,38.662,23.293,36.975,64.105c-1.273,30.771-1.321,42.187-1.36,51.359c-0.016,3.593-0.028,6.696-0.112,10.487
					l-0.051,2.222c-0.311,13.457-0.829,35.981,4.434,52.328c6.18,19.197,18.02,65.988,18.589,105.677
					c0.573,39.853,1.678,51.095,5.372,54.679c1.093,1.061,2.952,2.41,5.105,3.973c5.189,3.766,12.297,8.922,15.076,14.816
					c3.86,8.193,14.927,24.331,17.008,27.172c0.902,1.231,1.051,2.667,0.404,3.939c-0.755,1.49-2.448,2.453-4.314,2.453
					c-1.109,0.001-2.237-0.341-3.263-0.988c-2.098-1.322-4.75-5.011-7.317-8.577c-1.916-2.665-4.813-6.692-5.722-6.722
					c-0.699,0.129-1.237,0.493-1.632,1.113c-0.799,1.259-1.366,4.208,0.462,11.102c1.019,3.833,2.989,9.698,4.895,15.371
					c4.757,14.158,6.11,18.758,5.315,19.953c-0.16,0.238-0.328,0.538-0.515,0.868c-0.835,1.473-2.096,3.698-4.235,3.698
					c-1.11,0.002-2.24-0.59-3.456-1.804c-1.014-1.016-1.629-1.167-1.905-1.167c-0.153,0-0.39,0.039-0.652,0.375
					c-0.733,0.938-0.938,3.234-0.62,4.51c0.975,3.918,1.833,8.977,0.388,10.826c-0.804,1.029-2.142,1.075-3.854-0.008
					c-2.439-1.541-4.487-3.35-6.296-4.945c-2.296-2.027-4.279-3.777-6.096-4.081c-2.191-0.366-3.275-2.331-4.324-4.232
					c-0.859-1.555-1.746-3.162-3.202-3.769c-0.999-0.415-1.672-0.557-2.265-0.68c-1.685-0.352-2.725-0.698-6.221-4.192
					c-3.624-3.626-5.154-9.421-6.637-15.024c-0.629-2.379-1.279-4.838-2.074-7.048c-1.577-4.38-2.596-19.079-3.579-33.296
					c-0.677-9.782-1.317-19.023-2.05-22.973c-1.104-5.964-3.143-10.953-6.52-19.216c-1.944-4.761-4.365-10.687-7.287-18.479
					c-8.12-21.66-17.802-69.862-20.364-91.788l-0.407-3.492c-2.141-18.376-6.593-56.612-9.566-58.191
					c-2.79,0.017-8.89,12.975-9.761,30.702c-0.918,18.684,1.576,50.923,7.339,72.535l0.64,2.39
					c5.792,21.708,11.782,44.155,12.636,63.939c0.162,3.72,0.638,8.782,1.189,14.644c2.586,27.507,6.916,73.547-5.631,120.607
					c-15.678,58.813-16.786,73.943-17.645,99.988c-0.745,22.589,1.71,35.367,4.553,50.162c0.528,2.757,1.075,5.598,1.621,8.598
					c3.564,19.614-0.414,69.36-5.904,89.586c-5.671,20.896-14.998,72.34-15.881,85.285c-0.09,1.321-0.18,2.563-0.265,3.736
					c-0.753,10.398-1.098,15.146,2.256,22.11c1.645,3.419,7.067,9.45,12.31,15.283c7.247,8.062,14.091,15.675,14.269,19.419
					c0.296,6.262-0.256,8.174-2.455,11.948c-0.767,1.313-1.329,2.509-1.826,3.566c-0.856,1.823-1.535,3.267-2.758,4.286
					c-0.933,0.777-2.064,0.987-3.157,1.191c-1.209,0.224-2.254,0.418-2.897,1.32l-0.283,0.399c-0.872,1.236-0.975,1.315-2.769,2.096
					c-0.646,0.282-1.541,0.673-2.831,1.28c-0.941,0.442-1.984,0.667-3.102,0.667c-1.791,0-3.532-0.571-4.93-1.03
					c-0.948-0.311-1.841-0.605-2.422-0.605c-0.392,0-0.53,0.107-0.635,0.494C671.032,1136.802,667.104,1140.449,663.052,1140.449z
					 M612.089,660.986l0.237,0.08c6.682,2.262,12.345,58.282,12.873,87.754c0.565,31.73,5.221,89.143,7.637,99.712
					c2.455,10.748,2.337,32.91-0.282,52.698c-2.109,15.927,2.556,57.773,6.301,91.398c0.941,8.437,1.828,16.407,2.538,23.316
					c0.767,7.479-0.833,13.836-2.241,19.444c-0.937,3.723-1.744,6.939-1.696,9.828c0.076,4.66,1.841,8.574,3.259,11.717
					c1.16,2.576,2.163,4.801,2.001,6.793l-0.159,1.902c-0.125,1.446-0.229,2.661-0.276,3.717c-0.105,2.285-0.952,5.769-1.853,9.456
					c-1.625,6.677-3.648,14.985-1.533,17.842c2.286,3.079,2.461,3.815,3.047,6.252c0.339,1.415,0.852,3.555,2.069,7.237
					c3.074,9.314,9.704,19.027,14.091,25.452l0.543,0.795c1.171,1.721,2.654,2.593,4.408,2.593c3.443,0,6.748-3.257,7.228-5.021
					c0.282-1.035,0.996-1.582,2.061-1.582c0.817,0,1.774,0.314,2.882,0.679c1.367,0.448,2.915,0.958,4.47,0.958
					c0.909,0,1.72-0.174,2.471-0.527c1.31-0.615,2.219-1.012,2.873-1.298c1.483-0.646,1.483-0.646,2.149-1.593l0.288-0.408
					c0.992-1.387,2.499-1.667,3.831-1.914c0.948-0.176,1.846-0.342,2.48-0.873c0.973-0.811,1.589-2.121,2.368-3.78
					c0.51-1.084,1.088-2.313,1.886-3.682c1.944-3.339,2.549-4.938,2.256-11.134c-0.151-3.219-7.451-11.338-13.89-18.502
					c-5.559-6.182-10.808-12.021-12.545-15.63c-3.523-7.319-3.146-12.513-2.396-22.857c0.083-1.173,0.173-2.411,0.263-3.729
					c0.888-13,10.243-64.616,15.931-85.573c5.451-20.091,9.41-69.479,5.873-88.934c-0.543-2.997-1.088-5.832-1.615-8.583
					c-2.86-14.883-5.329-27.736-4.58-50.49c0.927-28.111,2.691-44.043,17.695-100.321c12.479-46.804,8.165-92.679,5.587-120.088
					c-0.554-5.881-1.031-10.96-1.193-14.718c-0.85-19.623-6.817-41.991-12.591-63.622l-0.637-2.39
					c-5.8-21.752-8.312-54.192-7.39-72.988c0.874-17.777,6.89-32.091,11.29-32.091c3.139,0.116,5.686,14.013,10.98,59.481
					l0.408,3.49c2.553,21.855,12.195,69.881,20.279,91.442c2.915,7.774,5.33,13.688,7.271,18.44
					c3.412,8.35,5.474,13.391,6.605,19.505c0.747,4.032,1.391,13.313,2.069,23.14c0.934,13.459,1.988,28.711,3.495,32.898
					c0.817,2.27,1.477,4.761,2.114,7.17c1.432,5.414,2.91,11.014,6.255,14.356c3.346,3.347,4.147,3.514,5.477,3.791
					c0.624,0.13,1.404,0.294,2.53,0.763c1.934,0.805,2.991,2.726,3.926,4.419c0.96,1.739,1.787,3.241,3.277,3.489
					c2.233,0.372,4.362,2.252,6.83,4.43c1.765,1.56,3.768,3.327,6.105,4.805c0.747,0.472,1.196,0.57,1.441,0.57
					c0.204,0,0.338-0.064,0.462-0.224c0.806-1.03,0.554-4.694-0.657-9.56c-0.359-1.437-0.249-4.32,0.89-5.776
					c0.479-0.616,1.108-0.942,1.815-0.942c0.909,0,1.875,0.523,2.95,1.598c0.911,0.912,1.722,1.374,2.411,1.374
					c1.279,0,2.244-1.706,2.949-2.951c0.207-0.363,0.396-0.695,0.572-0.959c0.361-1.263-3.018-11.32-5.486-18.663
					c-1.911-5.695-3.891-11.584-4.92-15.463c-1.604-6.033-1.695-10.048-0.283-12.272c0.617-0.972,1.502-1.569,2.63-1.774
					c1.554-0.294,3.614,2.371,7.171,7.313c2.367,3.29,5.05,7.021,6.902,8.19c0.789,0.497,1.646,0.76,2.475,0.76
					c1.316,0,2.492-0.646,3.001-1.645c0.39-0.77,0.291-1.622-0.28-2.4c-2.094-2.859-13.245-19.126-17.152-27.415
					c-2.617-5.551-9.547-10.578-14.607-14.249c-2.199-1.596-4.098-2.973-5.268-4.107c-4.091-3.971-5.232-14.904-5.818-55.719
					c-0.567-39.513-12.361-86.12-18.52-105.244c-5.34-16.585-4.816-39.265-4.503-52.815l0.05-2.22
					c0.084-3.779,0.098-6.875,0.112-10.461c0.037-9.186,0.088-20.617,1.36-51.416c1.653-39.938-23.011-54.795-36.261-62.777
					c-0.793-0.479-1.551-0.934-2.263-1.371c-12.768-7.837-67.972-32.111-68.528-32.355l-0.46-0.201l0.02-0.501
					c0.005-0.161,0.576-16.167,0.009-19.59c-0.561-3.384,3.31-11.808,6.419-18.577l0.997-2.174
					c2.796-6.153,1.442-11.832,1.428-11.889l-0.211-0.855l5.294-0.354c0.127-0.009,0.49-0.106,1.1-0.828
					c4.279-5.056,9.636-26.413,9.408-28.704c-0.033-0.337-0.105-1.039-1.588-1.039c-0.799,0-1.653,0.212-2.135,0.355
					c-0.465,2.439-0.71,2.779-1.341,2.779c-0.003,0-0.003,0-0.003,0h-0.325l-0.243-0.254c-0.298-0.326-0.532-0.583,0.332-9.938
					c1.473-15.881-5.746-36.786-10.201-44.027c-4.373-7.108-30.863-15.546-32.763-16.143h-8.026
					c-1.898,0.597-28.39,9.034-32.761,16.143c-4.454,7.241-11.673,28.146-10.203,44.027c0.864,9.355,0.642,9.6,0.333,9.938
					l-0.22,0.241l-0.351,0.013c-0.631,0-0.878-0.34-1.342-2.779c-0.482-0.144-1.334-0.355-2.134-0.355
					c-1.484,0-1.555,0.702-1.587,1.039c-0.23,2.29,5.124,23.646,9.403,28.704c0.611,0.722,0.973,0.819,1.1,0.828l5.298,0.354
					l-0.211,0.856c-0.015,0.057-1.368,5.735,1.426,11.889l0.992,2.165c3.11,6.772,6.984,15.201,6.424,18.586
					c-0.565,3.423,0.004,19.429,0.011,19.59l0.018,0.501l-0.46,0.201c-0.557,0.244-55.761,24.519-68.528,32.355
					c-0.712,0.438-1.468,0.893-2.261,1.371c-13.25,7.982-37.914,22.84-36.263,62.777c1.275,30.809,1.323,42.237,1.362,51.423
					c0.016,3.583,0.028,6.679,0.109,10.454l0.051,2.209c0.313,13.553,0.839,36.237-4.503,52.826
					c-6.155,19.123-17.952,65.731-18.519,105.244c-0.585,40.814-1.729,51.748-5.819,55.719c-1.167,1.135-3.068,2.512-5.267,4.107
					c-5.062,3.671-11.988,8.698-14.605,14.25c-3.9,8.273-15.057,24.549-17.155,27.414c-0.569,0.778-0.67,1.631-0.28,2.4
					c0.506,0.998,1.685,1.645,3,1.645c0.83,0,1.688-0.263,2.475-0.76c1.854-1.17,4.539-4.9,6.906-8.191
					c3.555-4.939,5.619-7.613,7.168-7.313c1.128,0.205,2.013,0.803,2.63,1.774c1.413,2.227,1.321,6.239-0.28,12.272
					c-1.031,3.879-3.009,9.768-4.923,15.463c-2.466,7.343-5.846,17.4-5.451,18.729c0.142,0.198,0.331,0.53,0.538,0.894
					c0.704,1.245,1.67,2.951,2.948,2.951c0.69,0,1.5-0.462,2.409-1.372c1.077-1.076,2.043-1.6,2.95-1.6
					c0.707,0,1.336,0.326,1.817,0.942c1.139,1.456,1.249,4.34,0.892,5.776c-1.214,4.863-1.468,8.526-0.659,9.56
					c0.125,0.159,0.258,0.224,0.462,0.224c0.247,0,0.696-0.099,1.443-0.57c2.339-1.479,4.341-3.245,6.105-4.805
					c2.466-2.178,4.597-4.058,6.831-4.43c1.487-0.248,2.314-1.75,3.274-3.489c0.935-1.693,1.993-3.614,3.927-4.419
					c1.127-0.469,1.905-0.633,2.531-0.763c1.327-0.277,2.131-0.444,5.475-3.791c3.345-3.343,4.825-8.942,6.258-14.358
					c0.635-2.408,1.294-4.899,2.111-7.168c1.506-4.188,2.563-19.439,3.495-32.896c0.679-9.827,1.322-19.109,2.069-23.142
					c1.133-6.114,3.193-11.156,6.605-19.509c1.942-4.752,4.357-10.664,7.271-18.437c8.085-21.561,17.726-69.587,20.279-91.442
					l0.407-3.488c5.296-45.47,7.843-59.367,10.901-59.481c4.479-0.002,10.495,14.313,11.369,32.089
					c0.924,18.793-1.588,51.231-7.389,72.988l-0.636,2.38c-5.772,21.634-11.743,44.006-12.591,63.632
					c-0.164,3.756-0.642,8.834-1.193,14.714c-2.58,27.409-6.895,73.284,5.585,120.092c15.004,56.271,16.769,72.205,17.697,100.321
					c0.749,22.752-1.722,35.605-4.579,50.487c-0.53,2.752-1.075,5.588-1.618,8.586c-3.537,19.458,0.423,68.845,5.876,88.934
					c5.688,20.961,15.043,72.579,15.928,85.573c0.09,1.32,0.18,2.561,0.265,3.732c0.749,10.344,1.126,15.536-2.397,22.854
					c-1.736,3.608-6.986,9.448-12.545,15.629c-6.438,7.164-13.738,15.284-13.889,18.503c-0.294,6.194,0.311,7.795,2.256,11.136
					c0.799,1.367,1.375,2.595,1.885,3.679c0.779,1.66,1.397,2.971,2.367,3.781c0.638,0.531,1.533,0.697,2.484,0.873
					c1.329,0.247,2.836,0.527,3.828,1.914l0.289,0.408c0.665,0.947,0.665,0.947,2.15,1.594c0.654,0.285,1.563,0.682,2.871,1.297
					c0.754,0.354,1.562,0.527,2.471,0.527c1.557,0,3.105-0.51,4.47-0.958c1.108-0.364,2.067-0.679,2.882-0.679
					c1.066,0,1.778,0.547,2.061,1.584c0.482,1.763,3.785,5.02,7.228,5.02c1.754,0,3.237-0.873,4.411-2.593l0.541-0.793
					c4.387-6.427,11.016-16.14,14.093-25.453c1.218-3.685,1.729-5.823,2.069-7.239c0.582-2.436,0.76-3.172,3.044-6.251
					c2.116-2.856,0.093-11.163-1.533-17.837c-0.897-3.69-1.747-7.175-1.851-9.461c-0.081-1.777,0.944-3.94,2.243-6.679
					c2.168-4.567,5.134-10.821,5.341-19.74c0.066-2.861-1.264-5.948-2.805-9.521c-2.15-4.993-4.591-10.652-3.893-17.461
					c0.724-7.046,1.633-15.17,2.596-23.771c3.734-33.319,8.382-74.788,6.242-90.945c-2.619-19.785-2.738-41.947-0.283-52.697
					c2.414-10.561,7.072-67.971,7.639-99.712c0.525-29.472,6.189-85.492,12.873-87.754L612.089,660.986z"/>
			</g>
		</g>
	</g>
	<rect x="331.979" y="50" fill="none" width="536.041" height="1100"/>
</g>
</svg>
